SplineFontDB: 3.0
FontName: WindWeather
FullName: WindWeather
FamilyName: WindWeather
Weight: Book
Copyright: Copyright (c) 2014, GA Weather App
Version: 001.000
ItalicAngle: 0
UnderlinePosition: -100
UnderlineWidth: 50
Ascent: 800
Descent: 200
InvalidEm: 0
sfntRevision: 0x00010000
LayerCount: 2
Layer: 0 1 "Back" 1
Layer: 1 1 "Fore" 0
XUID: [1021 493 992877311 12502203]
FSType: 0
OS2Version: 4
OS2_WeightWidthSlopeOnly: 0
OS2_UseTypoMetrics: 1
CreationTime: 1416517275
ModificationTime: 1416720806
PfmFamily: 17
TTFWeight: 400
TTFWidth: 5
LineGap: 90
VLineGap: 0
Panose: 2 0 5 9 0 0 0 0 0 0
OS2TypoAscent: 800
OS2TypoAOffset: 0
OS2TypoDescent: -200
OS2TypoDOffset: 0
OS2TypoLinegap: 90
OS2WinAscent: 864
OS2WinAOffset: 0
OS2WinDescent: 191
OS2WinDOffset: 0
HheadAscent: 864
HheadAOffset: 0
HheadDescent: -191
HheadDOffset: 0
OS2SubXSize: 650
OS2SubYSize: 700
OS2SubXOff: 0
OS2SubYOff: 140
OS2SupXSize: 650
OS2SupYSize: 700
OS2SupXOff: 0
OS2SupYOff: 480
OS2StrikeYSize: 49
OS2StrikeYPos: 258
OS2CapHeight: 0
OS2XHeight: 0
OS2Vendor: 'PfEd'
OS2CodePages: 00000001.00000000
OS2UnicodeRanges: 00000001.00000000.00000000.00000000
DEI: 91125
ShortTable: cvt  2
  33
  633
EndShort
ShortTable: maxp 16
  1
  0
  40
  30
  6
  0
  0
  2
  0
  1
  1
  0
  64
  46
  0
  0
EndShort
LangName: 1033 "" "" "Regular" "FontForge 2.0 : WindWeather : 20-11-2014"
GaspTable: 1 65535 2 0
Encoding: UnicodeBmp
UnicodeInterp: none
NameList: AGL For New Fonts
DisplaySize: -48
AntiAlias: 1
FitToEm: 1
WinInfo: 38 38 4
BeginChars: 65539 40

StartChar: .notdef
Encoding: 65536 -1 0
Width: 1024
Flags: W
LayerCount: 2
Back
Fore
SplineSet
33 0 m 1,0,-1
 33 666 l 1,1,-1
 298 666 l 1,2,-1
 298 0 l 1,3,-1
 33 0 l 1,0,-1
66 33 m 1,4,-1
 265 33 l 1,5,-1
 265 633 l 1,6,-1
 66 633 l 1,7,-1
 66 33 l 1,4,-1
EndSplineSet
EndChar

StartChar: A
Encoding: 65 65 3
Width: 1024
Flags: W
LayerCount: 2
Back
Fore
SplineSet
-3 660 m 128,-1,1
 78 660 78 660 135.5 602.5 c 128,-1,2
 193 545 193 545 193 464 c 128,-1,3
 193 383 193 383 135.5 325.5 c 128,-1,4
 78 268 78 268 -3 268 c 128,-1,5
 -84 268 -84 268 -141.5 325.5 c 128,-1,6
 -199 383 -199 383 -199 464 c 128,-1,7
 -199 545 -199 545 -141.5 602.5 c 128,-1,0
 -84 660 -84 660 -3 660 c 128,-1,1
-3 638 m 128,-1,9
 -75 638 -75 638 -126 587 c 128,-1,10
 -177 536 -177 536 -177 464 c 128,-1,11
 -177 392 -177 392 -126 341 c 128,-1,12
 -75 290 -75 290 -3 290 c 128,-1,13
 69 290 69 290 120 341 c 128,-1,14
 171 392 171 392 171 464 c 128,-1,15
 171 536 171 536 120 587 c 128,-1,8
 69 638 69 638 -3 638 c 128,-1,9
EndSplineSet
EndChar

StartChar: B
Encoding: 66 66 4
Width: 1024
Flags: W
LayerCount: 2
Back
Fore
SplineSet
20 -17 m 1,0,-1
 -17 -17 l 1,1,-1
 -18 762 l 1,2,-1
 20 763 l 1,3,-1
 20 671 l 1,4,-1
 141 729 l 1,5,-1
 162 696 l 1,6,-1
 20 631 l 1,7,-1
 20 -17 l 1,0,-1
EndSplineSet
EndChar

StartChar: C
Encoding: 67 67 5
Width: 1024
Flags: W
LayerCount: 2
Back
Fore
SplineSet
20 -17 m 1,0,-1
 -17 -17 l 1,1,-1
 -17 721 l 1,2,-1
 -18 722 l 1,3,-1
 282 864 l 1,4,-1
 303 831 l 1,5,-1
 20 701 l 1,6,-1
 20 -17 l 1,0,-1
EndSplineSet
EndChar

StartChar: D
Encoding: 68 68 6
Width: 1024
Flags: W
LayerCount: 2
Back
Fore
SplineSet
282 864 m 1,0,-1
 303 831 l 1,1,-1
 20 701 l 1,2,-1
 20 671 l 1,3,-1
 141 729 l 1,4,-1
 162 696 l 1,5,-1
 20 631 l 1,6,-1
 20 -17 l 1,7,-1
 -17 -17 l 1,8,-1
 -17 721 l 1,9,-1
 -18 722 l 1,10,-1
 282 864 l 1,0,-1
EndSplineSet
EndChar

StartChar: E
Encoding: 69 69 7
Width: 1024
Flags: W
LayerCount: 2
Back
Fore
SplineSet
282 864 m 1,0,-1
 303 831 l 1,1,-1
 20 701 l 1,2,-1
 20 671 l 1,3,-1
 282 794 l 1,4,-1
 303 761 l 1,5,-1
 20 631 l 1,6,-1
 20 -17 l 1,7,-1
 -17 -17 l 1,8,-1
 -17 721 l 1,9,-1
 -18 722 l 1,10,-1
 282 864 l 1,0,-1
EndSplineSet
EndChar

StartChar: F
Encoding: 70 70 8
Width: 1024
Flags: W
LayerCount: 2
Back
Fore
SplineSet
282 864 m 1,0,-1
 303 831 l 1,1,-1
 20 701 l 1,2,-1
 20 671 l 1,3,-1
 282 794 l 1,4,-1
 303 761 l 1,5,-1
 20 631 l 1,6,-1
 20 601 l 1,7,-1
 141 659 l 1,8,-1
 162 626 l 1,9,-1
 20 561 l 1,10,-1
 20 -17 l 1,11,-1
 -17 -17 l 1,12,-1
 -17 721 l 1,13,-1
 -18 722 l 1,14,-1
 282 864 l 1,0,-1
EndSplineSet
EndChar

StartChar: G
Encoding: 71 71 9
Width: 1024
Flags: W
LayerCount: 2
Back
Fore
SplineSet
282 864 m 1,0,-1
 303 831 l 1,1,-1
 20 701 l 1,2,-1
 20 671 l 1,3,-1
 282 794 l 1,4,-1
 303 761 l 1,5,-1
 20 631 l 1,6,-1
 20 601 l 1,7,-1
 282 724 l 1,8,-1
 303 691 l 1,9,-1
 20 561 l 1,10,-1
 20 -17 l 1,11,-1
 -17 -17 l 1,12,-1
 -17 721 l 1,13,-1
 -18 722 l 1,14,-1
 282 864 l 1,0,-1
EndSplineSet
EndChar

StartChar: H
Encoding: 72 72 10
Width: 1024
Flags: W
LayerCount: 2
Back
Fore
SplineSet
282 864 m 1,0,-1
 303 831 l 1,1,-1
 20 701 l 1,2,-1
 20 671 l 1,3,-1
 282 794 l 1,4,-1
 303 761 l 1,5,-1
 20 631 l 1,6,-1
 20 601 l 1,7,-1
 282 724 l 1,8,-1
 303 691 l 1,9,-1
 20 561 l 1,10,-1
 20 531 l 1,11,-1
 141 589 l 1,12,-1
 162 556 l 1,13,-1
 20 491 l 1,14,-1
 20 -17 l 1,15,-1
 -17 -17 l 1,16,-1
 -17 721 l 1,17,-1
 -18 722 l 1,18,-1
 282 864 l 1,0,-1
EndSplineSet
EndChar

StartChar: I
Encoding: 73 73 11
Width: 1024
Flags: W
LayerCount: 2
Back
Fore
SplineSet
282 864 m 1,0,-1
 303 831 l 1,1,-1
 20 701 l 1,2,-1
 20 671 l 1,3,-1
 282 794 l 1,4,-1
 303 761 l 1,5,-1
 20 631 l 1,6,-1
 20 601 l 1,7,-1
 282 724 l 1,8,-1
 303 691 l 1,9,-1
 20 561 l 1,10,-1
 20 531 l 1,11,-1
 282 654 l 1,12,-1
 303 621 l 1,13,-1
 20 491 l 1,14,-1
 20 -17 l 1,15,-1
 -17 -17 l 1,16,-1
 -17 721 l 1,17,-1
 -18 722 l 1,18,-1
 282 864 l 1,0,-1
EndSplineSet
EndChar

StartChar: J
Encoding: 74 74 12
Width: 1024
Flags: W
LayerCount: 2
Back
Fore
SplineSet
282 864 m 1,0,-1
 303 831 l 1,1,-1
 20 701 l 1,2,-1
 20 671 l 1,3,-1
 282 794 l 1,4,-1
 303 761 l 1,5,-1
 20 631 l 1,6,-1
 20 601 l 1,7,-1
 286 724 l 1,8,-1
 303 691 l 1,9,-1
 20 561 l 1,10,-1
 20 531 l 1,11,-1
 282 654 l 1,12,-1
 303 621 l 1,13,-1
 20 491 l 1,14,-1
 20 461 l 1,15,-1
 141 519 l 1,16,-1
 162 486 l 1,17,-1
 20 421 l 1,18,-1
 20 -17 l 1,19,-1
 -17 -17 l 1,20,-1
 -17 722 l 1,21,-1
 282 864 l 1,0,-1
EndSplineSet
EndChar

StartChar: K
Encoding: 75 75 13
Width: 1024
Flags: W
LayerCount: 2
Back
Fore
SplineSet
303 831 m 1,0,-1
 20 701 l 1,1,-1
 20 -17 l 1,2,-1
 -17 -17 l 1,3,-1
 -17 820 l 1,4,-1
 303 831 l 1,0,-1
EndSplineSet
EndChar

StartChar: L
Encoding: 76 76 14
Width: 1024
Flags: W
LayerCount: 2
Back
Fore
SplineSet
303 831 m 1,0,-1
 20 701 l 1,1,-1
 20 671 l 1,2,-1
 141 729 l 1,3,-1
 162 696 l 1,4,-1
 20 631 l 1,5,-1
 20 -17 l 1,6,-1
 -17 -17 l 1,7,-1
 -17 820 l 1,8,-1
 303 831 l 1,0,-1
EndSplineSet
EndChar

StartChar: M
Encoding: 77 77 15
Width: 1024
Flags: W
LayerCount: 2
Back
Fore
SplineSet
303 831 m 1,0,-1
 20 701 l 1,1,-1
 20 671 l 1,2,-1
 282 794 l 1,3,-1
 303 761 l 1,4,-1
 20 631 l 1,5,-1
 20 -17 l 1,6,-1
 -17 -17 l 1,7,-1
 -17 820 l 1,8,-1
 303 831 l 1,0,-1
EndSplineSet
EndChar

StartChar: N
Encoding: 78 78 16
Width: 1024
Flags: W
LayerCount: 2
Back
Fore
SplineSet
303 831 m 1,0,-1
 20 701 l 1,1,-1
 20 671 l 1,2,-1
 282 794 l 1,3,-1
 303 761 l 1,4,-1
 20 631 l 1,5,-1
 20 601 l 1,6,-1
 141 659 l 1,7,-1
 162 626 l 1,8,-1
 20 561 l 1,9,-1
 20 -17 l 1,10,-1
 -17 -17 l 1,11,-1
 -17 814 l 1,12,-1
 303 831 l 1,0,-1
EndSplineSet
EndChar

StartChar: O
Encoding: 79 79 17
Width: 1024
Flags: W
LayerCount: 2
Back
Fore
SplineSet
303 831 m 1,0,-1
 20 701 l 1,1,-1
 20 671 l 1,2,-1
 282 794 l 1,3,-1
 303 761 l 1,4,-1
 20 631 l 1,5,-1
 20 601 l 1,6,-1
 282 724 l 1,7,-1
 303 691 l 1,8,-1
 20 561 l 1,9,-1
 20 -17 l 1,10,-1
 -17 -17 l 1,11,-1
 -17 820 l 1,12,-1
 303 831 l 1,0,-1
EndSplineSet
EndChar

StartChar: P
Encoding: 80 80 18
Width: 1024
Flags: W
LayerCount: 2
Back
Fore
SplineSet
303 831 m 1,0,-1
 20 701 l 1,1,-1
 20 671 l 1,2,-1
 282 794 l 1,3,-1
 303 761 l 1,4,-1
 20 631 l 1,5,-1
 20 601 l 1,6,-1
 282 724 l 1,7,-1
 303 691 l 1,8,-1
 20 561 l 1,9,-1
 20 531 l 1,10,-1
 141 589 l 1,11,-1
 162 556 l 1,12,-1
 20 491 l 1,13,-1
 20 -17 l 1,14,-1
 -17 -17 l 1,15,-1
 -17 820 l 1,16,-1
 303 831 l 1,0,-1
EndSplineSet
EndChar

StartChar: Q
Encoding: 81 81 19
Width: 1024
Flags: W
LayerCount: 2
Back
Fore
SplineSet
303 831 m 1,0,-1
 20 701 l 1,1,-1
 20 671 l 1,2,-1
 282 794 l 1,3,-1
 303 761 l 1,4,-1
 20 631 l 1,5,-1
 20 601 l 1,6,-1
 282 724 l 1,7,-1
 303 691 l 1,8,-1
 20 561 l 1,9,-1
 20 531 l 1,10,-1
 282 654 l 1,11,-1
 303 621 l 1,12,-1
 20 491 l 1,13,-1
 20 -17 l 1,14,-1
 -17 -17 l 1,15,-1
 -17 820 l 1,16,-1
 303 831 l 1,0,-1
EndSplineSet
EndChar

StartChar: R
Encoding: 82 82 20
Width: 1024
Flags: W
LayerCount: 2
Back
Fore
SplineSet
303 831 m 1,0,-1
 20 701 l 1,1,-1
 20 671 l 1,2,-1
 282 794 l 1,3,-1
 303 761 l 1,4,-1
 20 631 l 1,5,-1
 20 601 l 1,6,-1
 282 724 l 1,7,-1
 303 691 l 1,8,-1
 20 561 l 1,9,-1
 20 531 l 1,10,-1
 282 654 l 1,11,-1
 303 621 l 1,12,13
 303 621 303 621 20 491 c 1,14,-1
 20 461 l 1,15,-1
 141 519 l 1,16,-1
 162 486 l 1,17,-1
 20 421 l 1,18,-1
 20 -17 l 1,19,-1
 -17 -17 l 1,20,-1
 -17 820 l 1,21,-1
 303 831 l 1,0,-1
EndSplineSet
EndChar

StartChar: S
Encoding: 83 83 21
Width: 1024
Flags: W
LayerCount: 2
Back
Fore
SplineSet
303 831 m 1,0,-1
 20 701 l 1,1,-1
 20 671 l 1,2,-1
 282 794 l 1,3,-1
 303 761 l 1,4,-1
 20 631 l 1,5,-1
 20 601 l 1,6,-1
 282 724 l 1,7,-1
 303 691 l 1,8,-1
 20 561 l 1,9,-1
 20 531 l 1,10,-1
 282 654 l 1,11,-1
 303 621 l 1,12,13
 303 621 303 621 20 491 c 1,14,-1
 20 461 l 1,15,-1
 282 584 l 1,16,-1
 303 551 l 1,17,-1
 20 421 l 1,18,-1
 20 -17 l 1,19,-1
 -17 -17 l 1,20,-1
 -17 820 l 1,21,-1
 303 831 l 1,0,-1
EndSplineSet
EndChar

StartChar: T
Encoding: 84 84 22
Width: 1024
Flags: W
LayerCount: 2
Back
Fore
SplineSet
303 831 m 1,0,-1
 20 701 l 1,1,-1
 20 671 l 1,2,-1
 282 794 l 1,3,-1
 303 761 l 1,4,-1
 20 631 l 1,5,-1
 20 601 l 1,6,-1
 282 724 l 1,7,-1
 303 691 l 1,8,-1
 20 561 l 1,9,-1
 20 531 l 1,10,-1
 282 654 l 1,11,-1
 303 621 l 1,12,13
 303 621 303 621 20 491 c 1,14,-1
 20 461 l 1,15,-1
 282 584 l 1,16,-1
 303 551 l 1,17,-1
 20 421 l 1,18,-1
 20 391 l 1,19,-1
 141 449 l 1,20,-1
 162 416 l 1,21,-1
 20 351 l 1,22,-1
 20 -17 l 1,23,-1
 -17 -17 l 1,24,-1
 -17 820 l 1,25,-1
 303 831 l 1,0,-1
EndSplineSet
EndChar

StartChar: U
Encoding: 85 85 23
Width: 1024
Flags: W
LayerCount: 2
Back
Fore
SplineSet
303 831 m 1,0,-1
 20 701 l 1,1,2
 20 701 20 701 303 713 c 1,3,4
 284 714 284 714 20 583 c 1,5,6
 20 583 20 583 20 -17 c 1,7,-1
 -17 -17 l 1,8,-1
 -17 820 l 1,9,-1
 303 831 l 1,0,-1
EndSplineSet
EndChar

StartChar: V
Encoding: 86 86 24
Width: 1024
Flags: W
LayerCount: 2
Back
Fore
SplineSet
303 831 m 1,0,-1
 20 701 l 1,1,2
 20 701 20 701 303 713 c 1,3,4
 284 714 284 714 20 583 c 1,5,6
 20 583 20 583 20 553 c 1,7,-1
 141 611 l 1,8,-1
 162 578 l 1,9,-1
 20 513 l 1,10,-1
 20 -17 l 1,11,-1
 -17 -17 l 1,12,-1
 -17 820 l 1,13,-1
 303 831 l 1,0,-1
EndSplineSet
EndChar

StartChar: W
Encoding: 87 87 25
Width: 1024
Flags: W
LayerCount: 2
Back
Fore
SplineSet
303 831 m 1,0,-1
 20 701 l 1,1,2
 20 701 20 701 303 713 c 1,3,4
 284 714 284 714 20 583 c 1,5,6
 20 583 20 583 20 553 c 1,7,-1
 282 676 l 1,8,-1
 303 643 l 1,9,-1
 20 513 l 1,10,-1
 20 -17 l 1,11,-1
 -17 -17 l 1,12,-1
 -17 820 l 1,13,-1
 303 831 l 1,0,-1
EndSplineSet
EndChar

StartChar: X
Encoding: 88 88 26
Width: 1024
Flags: W
LayerCount: 2
Back
Fore
SplineSet
303 831 m 1,0,-1
 20 701 l 1,1,2
 20 701 20 701 303 713 c 1,3,4
 284 714 284 714 20 583 c 1,5,6
 20 583 20 583 20 553 c 1,7,-1
 282 676 l 1,8,-1
 303 643 l 1,9,-1
 20 513 l 1,10,-1
 20 483 l 1,11,-1
 141 541 l 1,12,-1
 162 508 l 1,13,-1
 20 443 l 1,14,-1
 20 -17 l 1,15,-1
 -17 -17 l 1,16,-1
 -17 820 l 1,17,-1
 303 831 l 1,0,-1
EndSplineSet
EndChar

StartChar: Y
Encoding: 89 89 27
Width: 1024
Flags: W
LayerCount: 2
Back
Fore
SplineSet
303 831 m 1,0,-1
 20 701 l 1,1,2
 20 701 20 701 303 713 c 1,3,4
 284 714 284 714 20 583 c 1,5,6
 20 583 20 583 20 553 c 1,7,-1
 282 676 l 1,8,-1
 303 643 l 1,9,-1
 20 513 l 1,10,-1
 20 483 l 1,11,-1
 282 606 l 1,12,-1
 303 573 l 1,13,-1
 20 443 l 1,14,-1
 20 -17 l 1,15,-1
 -17 -17 l 1,16,-1
 -17 820 l 1,17,-1
 303 831 l 1,0,-1
EndSplineSet
EndChar

StartChar: Z
Encoding: 90 90 28
Width: 1024
Flags: W
LayerCount: 2
Back
Fore
SplineSet
303 831 m 1,0,-1
 20 701 l 1,1,2
 20 701 20 701 303 713 c 1,3,4
 284 714 284 714 20 583 c 1,5,6
 20 583 20 583 20 553 c 1,7,-1
 282 676 l 1,8,-1
 303 643 l 1,9,-1
 20 513 l 1,10,-1
 20 483 l 1,11,-1
 282 606 l 1,12,-1
 303 573 l 1,13,-1
 20 443 l 1,14,-1
 20 413 l 1,15,-1
 141 471 l 1,16,-1
 162 438 l 1,17,-1
 20 373 l 1,18,-1
 20 -17 l 1,19,-1
 -17 -17 l 1,20,-1
 -17 820 l 1,21,-1
 303 831 l 1,0,-1
EndSplineSet
EndChar

StartChar: bracketleft
Encoding: 91 91 29
Width: 1024
Flags: W
LayerCount: 2
Back
Fore
SplineSet
303 831 m 1,0,-1
 20 701 l 1,1,2
 20 701 20 701 303 713 c 1,3,4
 284 714 284 714 20 583 c 1,5,6
 20 583 20 583 20 553 c 1,7,-1
 282 676 l 1,8,-1
 303 643 l 1,9,-1
 20 513 l 1,10,-1
 20 483 l 1,11,-1
 282 606 l 1,12,-1
 303 573 l 1,13,-1
 20 443 l 1,14,-1
 20 413 l 1,15,-1
 282 536 l 1,16,-1
 303 503 l 1,17,-1
 20 373 l 1,18,-1
 20 -17 l 1,19,-1
 -17 -17 l 1,20,-1
 -17 820 l 1,21,-1
 303 831 l 1,0,-1
EndSplineSet
EndChar

StartChar: backslash
Encoding: 92 92 30
Width: 1024
Flags: W
LayerCount: 2
Back
Fore
SplineSet
303 831 m 1,0,-1
 20 701 l 1,1,2
 20 701 20 701 303 713 c 1,3,4
 284 714 284 714 20 583 c 1,5,6
 20 583 20 583 20 553 c 1,7,-1
 282 676 l 1,8,-1
 303 643 l 1,9,-1
 20 513 l 1,10,-1
 20 483 l 1,11,-1
 282 606 l 1,12,-1
 303 573 l 1,13,-1
 20 443 l 1,14,-1
 20 413 l 1,15,-1
 282 536 l 1,16,-1
 303 503 l 1,17,-1
 20 373 l 1,18,-1
 20 343 l 1,19,-1
 142 401 l 1,20,-1
 162 368 l 1,21,-1
 20 303 l 1,22,-1
 20 -17 l 1,23,-1
 -17 -17 l 1,24,-1
 -17 820 l 1,25,-1
 303 831 l 1,0,-1
EndSplineSet
EndChar

StartChar: bracketright
Encoding: 93 93 31
Width: 1024
Flags: W
LayerCount: 2
Back
Fore
SplineSet
303 831 m 1,0,-1
 20 701 l 1,1,2
 20 701 20 701 303 713 c 1,3,4
 284 714 284 714 20 583 c 1,5,6
 20 583 20 583 20 553 c 1,7,-1
 282 676 l 1,8,-1
 303 643 l 1,9,-1
 20 513 l 1,10,-1
 20 483 l 1,11,-1
 282 606 l 1,12,-1
 303 573 l 1,13,-1
 20 443 l 1,14,-1
 20 413 l 1,15,-1
 282 536 l 1,16,-1
 303 503 l 1,17,-1
 20 373 l 1,18,-1
 20 343 l 1,19,-1
 282 466 l 1,20,-1
 303 433 l 1,21,-1
 20 303 l 1,22,-1
 20 -17 l 1,23,-1
 -17 -17 l 1,24,-1
 -17 820 l 1,25,-1
 303 831 l 1,0,-1
EndSplineSet
EndChar

StartChar: asciicircum
Encoding: 94 94 32
Width: 1024
Flags: W
LayerCount: 2
Back
Fore
SplineSet
303 831 m 1,0,-1
 20 701 l 1,1,2
 20 701 20 701 303 713 c 1,3,4
 284 714 284 714 20 583 c 1,5,6
 20 583 20 583 20 553 c 1,7,-1
 282 676 l 1,8,-1
 303 643 l 1,9,-1
 20 513 l 1,10,-1
 20 483 l 1,11,-1
 282 606 l 1,12,-1
 303 573 l 1,13,-1
 20 443 l 1,14,-1
 20 413 l 1,15,-1
 282 536 l 1,16,-1
 303 503 l 1,17,-1
 20 373 l 1,18,-1
 20 343 l 1,19,-1
 282 466 l 1,20,-1
 303 433 l 1,21,-1
 20 303 l 1,22,-1
 20 273 l 1,23,-1
 141 331 l 1,24,-1
 162 298 l 1,25,-1
 20 233 l 1,26,-1
 20 -17 l 1,27,-1
 -17 -17 l 1,28,-1
 -17 820 l 1,29,-1
 303 831 l 1,0,-1
EndSplineSet
EndChar

StartChar: underscore
Encoding: 95 95 33
Width: 1024
Flags: W
LayerCount: 2
Back
Fore
SplineSet
303 831 m 1,0,-1
 20 701 l 1,1,2
 20 701 20 701 303 713 c 1,3,4
 284 714 284 714 20 583 c 1,5,6
 20 583 20 583 303 595 c 1,7,-1
 20 465 l 1,8,9
 20 465 20 465 20 -17 c 1,10,-1
 -17 -17 l 1,11,-1
 -17 820 l 1,12,-1
 303 831 l 1,0,-1
EndSplineSet
EndChar

StartChar: grave
Encoding: 96 96 34
Width: 1024
Flags: W
LayerCount: 2
Back
Fore
SplineSet
349 472 m 1,0,-1
 279 330 l 1,1,-1
 395 140 l 1,2,-1
 559 140 l 1,3,-1
 671 332 l 1,4,-1
 605 472 l 1,5,-1
 349 472 l 1,0,-1
355 510 m 1,6,-1
 611 510 l 1,7,-1
 683 572 l 1,8,-1
 803 394 l 1,9,-1
 711 326 l 1,10,-1
 577 94 l 1,11,-1
 570 15 l 1,12,-1
 372 12 l 1,13,-1
 375 88 l 1,14,-1
 245 326 l 1,15,-1
 145 390 l 1,16,-1
 271 576 l 1,17,-1
 355 510 l 1,6,-1
EndSplineSet
EndChar

StartChar: a
Encoding: 97 97 35
Width: 1024
Flags: W
LayerCount: 2
Back
Fore
SplineSet
340 442 m 1,0,-1
 276 285 l 1,1,-1
 386 110 l 1,2,-1
 550 110 l 1,3,-1
 666 288 l 1,4,-1
 596 442 l 1,5,-1
 340 442 l 1,0,-1
309 504 m 1,6,-1
 630 507 l 1,7,-1
 735 279 l 1,8,-1
 585 54 l 1,9,-1
 357 45 l 1,10,-1
 216 285 l 1,11,-1
 309 504 l 1,6,-1
EndSplineSet
EndChar

StartChar: b
Encoding: 98 98 36
Width: 1024
Flags: W
LayerCount: 2
Back
Fore
SplineSet
230 244 m 1,0,-1
 226 92 l 1,1,-1
 304 89 l 1,2,-1
 230 244 l 1,0,-1
696 258 m 1,3,-1
 632 92 l 1,4,-1
 696 89 l 1,5,-1
 696 258 l 1,3,-1
645 484 m 1,6,-1
 693 336 l 1,7,-1
 713 488 l 1,8,-1
 645 484 l 1,6,-1
230 484 m 1,9,-1
 226 332 l 1,10,-1
 314 484 l 1,11,-1
 230 484 l 1,9,-1
388 488 m 1,12,-1
 277 282 l 1,13,-1
 377 84 l 1,14,-1
 562 84 l 1,15,-1
 649 295 l 1,16,-1
 571 488 l 1,17,-1
 388 488 l 1,12,-1
175 545 m 1,18,-1
 753 549 l 1,19,-1
 757 299 l 1,20,-1
 764 28 l 1,21,-1
 186 28 l 1,22,-1
 186 282 l 1,23,-1
 175 545 l 1,18,-1
EndSplineSet
EndChar

StartChar: c
Encoding: 99 99 37
Width: 1024
Flags: W
LayerCount: 2
Back
Fore
SplineSet
468 498 m 1,0,-1
 237 36 l 1,1,-1
 744 33 l 1,2,-1
 468 498 l 1,0,-1
EndSplineSet
EndChar

StartChar: d
Encoding: 100 100 38
Width: 1024
Flags: W
LayerCount: 2
Back
Fore
SplineSet
471 414 m 1,0,-1
 651 90 l 1,1,-1
 321 90 l 1,2,-1
 471 414 l 1,0,-1
468 498 m 1,3,-1
 237 36 l 1,4,-1
 744 33 l 1,5,-1
 468 498 l 1,3,-1
EndSplineSet
EndChar

StartChar: e
Encoding: 101 101 39
Width: 1024
Flags: W
LayerCount: 2
Back
Fore
SplineSet
483 393 m 1,0,-1
 444 369 l 1,1,-1
 414 318 l 1,2,-1
 420 264 l 1,3,-1
 462 216 l 1,4,-1
 519 207 l 1,5,-1
 576 219 l 1,6,-1
 606 267 l 1,7,-1
 606 333 l 1,8,-1
 573 369 l 1,9,-1
 534 390 l 1,10,-1
 483 393 l 1,0,-1
501 585 m 1,11,-1
 561 417 l 1,12,-1
 612 393 l 1,13,-1
 648 354 l 1,14,-1
 825 303 l 1,15,-1
 648 255 l 1,16,-1
 627 195 l 1,17,-1
 567 162 l 1,18,-1
 528 12 l 1,19,-1
 468 165 l 1,20,-1
 408 204 l 1,21,-1
 378 246 l 1,22,-1
 204 294 l 1,23,-1
 366 345 l 1,24,-1
 399 399 l 1,25,-1
 453 432 l 1,26,-1
 501 585 l 1,11,-1
EndSplineSet
EndChar
